<svg xmlns="http://www.w3.org/2000/svg" viewBox="0 0 39 35" width="39" height="35">
	<style>
		tspan { white-space:pre }
		.shp0 { fill: #d8d8d8 } 
	</style>
	<path id="Basket" class="shp0" d="M34 11L28.9 11C28.87 10.9 28.83 10.8 28.77 10.71L23.77 2.71C23.51 2.28 23.04 2 22.5 2C21.67 2 21 2.67 21 3.5C21 3.79 21.08 4.06 21.23 4.29L25.42 11L12.58 11L16.77 4.29C16.92 4.06 17 3.79 17 3.5C17 2.67 16.33 2 15.5 2C14.96 2 14.49 2.28 14.23 2.71L9.23 10.71C9.17 10.8 9.13 10.9 9.1 11L4 11C2.34 11 1 12.34 1 14L1 16C1 17.42 1.99 18.6 3.32 18.91L7.12 31.85C7.49 33.09 8.64 34 10 34L28 34C29.36 34 30.51 33.09 30.88 31.85L34.68 18.91C36.01 18.6 37 17.42 37 16L37 14C37 12.34 35.66 11 34 11ZM4 14L34 14L34 16L4 16L4 14ZM28 31L10 31L6.47 19L31.53 19L28 31Z" />
</svg>