<svg xmlns="http://www.w3.org/2000/svg" viewBox="0 0 29 35" width="29" height="35">
	<style>
		tspan { white-space:pre }
		.shp0 { fill: #d8d8d8 } 
	</style>
	<path id="Home" class="shp0" d="M15 5.74L25 15.74L25 31L20 31L20 24C20 22.9 19.1 22 18 22L12 22C10.9 22 10 22.9 10 24L10 31L5 31L5 15.74L15 5.74M15.88 2.38C15.4 1.9 14.6 1.9 14.12 2.38L2.59 13.91C2.21 14.29 2 14.8 2 15.33L2 32C2 33.1 2.9 34 4 34L11 34C12.1 34 13 33.1 13 32L13 25L17 25L17 32C17 33.1 17.9 34 19 34L26 34C27.1 34 28 33.1 28 32L28 15.33C28 14.8 27.79 14.29 27.41 13.91L15.88 2.38Z" />
</svg>