<svg xmlns="http://www.w3.org/2000/svg" viewBox="0 0 30 35" width="30" height="35">
	<style>
		tspan { white-space:pre }
		.shp0 { fill: #d8d8d8 } 
	</style>
	<path id="In" class="shp0" d="M26 34L3 34C1.9 34 1 33.1 1 32L1 11C1 9.9 1.9 9 3 9L8.5 9C9.33 9 10 9.67 10 10.5C10 11.33 9.33 12 8.5 12L4 12L4 31L25 31L25 12L20.5 12C19.67 12 19 11.33 19 10.5C19 9.67 19.67 9 20.5 9L26 9C27.1 9 28 9.9 28 11L28 32C28 33.1 27.1 34 26 34ZM21 18.5C21 18.91 20.83 19.29 20.56 19.56L15.56 24.56C15.29 24.83 14.91 25 14.5 25C14.09 25 13.71 24.83 13.44 24.56L8.44 19.56C8.17 19.29 8 18.91 8 18.5C8 17.67 8.67 17 9.5 17C9.91 17 10.29 17.17 10.56 17.44L13 19.88L13 3.5C13 2.67 13.67 2 14.5 2C15.33 2 16 2.67 16 3.5L16 19.88L18.44 17.44C18.71 17.17 19.09 17 19.5 17C20.33 17 21 17.67 21 18.5Z" />
</svg>