<svg xmlns="http://www.w3.org/2000/svg" viewBox="0 0 35 35" width="35" height="35">
	<style>
		tspan { white-space:pre }
		.shp0 { fill: #d8d8d8 } 
	</style>
	<path id="Search" class="shp0" d="M22 2C15.37 2 10 7.37 10 14C10 16.77 10.95 19.32 12.53 21.35L2.44 31.44C2.15 31.73 2 32.12 2 32.5C2 32.88 2.15 33.27 2.44 33.56C2.73 33.85 3.12 34 3.5 34C3.88 34 4.27 33.85 4.56 33.56L14.65 23.47C16.68 25.05 19.23 26 22 26C28.63 26 34 20.63 34 14C34 7.37 28.63 2 22 2ZM22 23C17.04 23 13 18.96 13 14C13 9.04 17.04 5 22 5C26.96 5 31 9.04 31 14C31 18.96 26.96 23 22 23Z" />
</svg>